<?xml version="1.0" encoding="utf-8"?><!-- Uploaded to: SVG Repo, www.svgrepo.com, Generator: SVG Repo Mixer Tools -->
<svg width="800px" height="800px" viewBox="0 0 1024 1024" xmlns="http://www.w3.org/2000/svg">
    <path fill="#9A9A9A" d="M544 768v128h192a32 32 0 1 1 0 64H288a32 32 0 1 1 0-64h192V768H192A128 128 0 0 1 64 640V256a128 128 0 0 1 128-128h640a128 128 0 0 1 128 128v384a128 128 0 0 1-128 128H544zM192 192a64 64 0 0 0-64 64v384a64 64 0 0 0 64 64h640a64 64 0 0 0 64-64V256a64 64 0 0 0-64-64H192z"/>
    <path fill="#FFFF00FF" stroke="#FFFF00" stroke-width="5"
          d="M750 250
                      l20 90 l90 20
                      l-90 20 l-20 90
                      l-20 -90 l-90 -20
                      l90 -20 z">
                <animate 
                    attributeName="opacity"
                    values="0;1;0"
                    dur="2s"
                    repeatCount="indefinite" />
    </path>
</svg>
